<svg id="jugos_bebidas" xmlns="http://www.w3.org/2000/svg" width="24" height="24" viewBox="0 0 24 24">
  <rect id="Rectángulo_2291" data-name="Rectángulo 2291" width="24" height="24" fill="none"/>
  <g id="SODA" transform="translate(-37.418 -10.771)">
    <path id="Trazado_7162" data-name="Trazado 7162" d="M52.144,18.041a2.349,2.349,0,0,1-.838-1.8v-2.19h.1a.369.369,0,0,0,.369-.369v-1.54a.369.369,0,0,0-.369-.369H47.26a.369.369,0,0,0-.369.369v1.54a.369.369,0,0,0,.369.369h.1v2.19a2.349,2.349,0,0,1-.838,1.8,3.086,3.086,0,0,0-1.1,2.365V32.491A1.282,1.282,0,0,0,46.7,33.772h5.265a1.282,1.282,0,0,0,1.281-1.281V20.407a3.086,3.086,0,0,0-1.1-2.366Zm-5.99,5.282h6.354v4.265H46.154ZM47.628,12.51h3.4v.8h-3.4Zm2.94,1.54v.595A2.933,2.933,0,0,0,48.894,15a3.238,3.238,0,0,1-.8.3v-1.25ZM46.993,18.6a3.085,3.085,0,0,0,1.1-2.365v-.186a3.915,3.915,0,0,0,1.148-.407,2.214,2.214,0,0,1,1.327-.262v.855a3.085,3.085,0,0,0,1.1,2.365,2.35,2.35,0,0,1,.838,1.8v2.179H46.154V20.407A2.35,2.35,0,0,1,46.993,18.6Zm4.971,14.43H46.7a.544.544,0,0,1-.544-.544V28.325h6.353v4.166A.544.544,0,0,1,51.964,33.035Z" fill="#525252"/>
    <path id="Trazado_7163" data-name="Trazado 7163" d="M55.3,55.094a.674.674,0,1,0-.674-.674A.674.674,0,0,0,55.3,55.094Zm0-.737a.063.063,0,1,1-.063.063A.063.063,0,0,1,55.3,54.357Z" transform="translate(-7.267 -33.133)" fill="#525252"/>
    <path id="Trazado_7164" data-name="Trazado 7164" d="M64.549,45.68a.8.8,0,1,0-.8-.8A.8.8,0,0,0,64.549,45.68Zm0-.86a.061.061,0,1,1-.044.018.062.062,0,0,1,.044-.018Z" transform="translate(-14.472 -25.506)" fill="#525252"/>
    <path id="Trazado_7165" data-name="Trazado 7165" d="M54.285,97.408a1.036,1.036,0,1,0,1.035,1.036A1.036,1.036,0,0,0,54.285,97.408Zm0,1.334a.3.3,0,1,1,.3-.3A.3.3,0,0,1,54.285,98.742Z" transform="translate(-6.182 -67.599)" fill="#525252"/>
    <path id="Trazado_7166" data-name="Trazado 7166" d="M70.476,95.583a.6.6,0,1,0,.6.6A.6.6,0,0,0,70.476,95.583Zm0,.737a.136.136,0,1,1,.136-.136.136.136,0,0,1-.136.136Z" transform="translate(-19.307 -66.159)" fill="#525252"/>
  </g>
</svg>
