<svg id="carnes_pescados" xmlns="http://www.w3.org/2000/svg" width="32" height="32" viewBox="0 0 32 32">
  <rect id="Rectángulo_2285" data-name="Rectángulo 2285" width="32" height="32" fill="none"/>
  <g id="MEAT" transform="translate(1.335 5.334)">
    <path id="Trazado_7150" data-name="Trazado 7150" d="M37.224,28.585A24.99,24.99,0,0,0,24.784,25.2a22.634,22.634,0,0,0-5.492.674c-5.8,1.452-7.919,6.036-7.456,9.951-.014.51-.073,5.483,2.96,8.642a8.583,8.583,0,0,0,6.447,2.522h.032a14.613,14.613,0,0,0,8.353-2.629c1.562-.953,2.8-1.705,4.492-1.561a5.9,5.9,0,0,0,4.516-1.339c1.466-1.287,2.274-3.38,2.4-6.221,0-.016,0-.031,0-.047C41.536,32.269,39.419,29.872,37.224,28.585Zm-17.694-1.76a21.649,21.649,0,0,1,5.254-.643,23.949,23.949,0,0,1,11.932,3.246c3.79,2.222,3.483,5.023,3.3,5.829a4.345,4.345,0,0,1-4.282,3.361,5.344,5.344,0,0,1-1.591-.251,1.939,1.939,0,0,0-.6-.088c-1.031,0-2.559.687-4.681,1.642-1.281.576-2.874,1.291-4.78,2.046a9.783,9.783,0,0,1-3.594.726,7.749,7.749,0,0,1-7.677-6.946C12.385,32.251,14.294,28.137,19.531,26.826Zm18.456,13.9a4.945,4.945,0,0,1-3.784,1.1c-2.013-.173-3.507.738-5.087,1.7A13.59,13.59,0,0,1,21.276,46h-.031a7.641,7.641,0,0,1-5.736-2.216A9.3,9.3,0,0,1,13.4,39.957a8.414,8.414,0,0,0,7.094,3.717,10.76,10.76,0,0,0,3.955-.8c1.927-.761,3.532-1.483,4.829-2.066A15.093,15.093,0,0,1,33.55,39.26a.976.976,0,0,1,.3.043,6.324,6.324,0,0,0,1.884.3,5.385,5.385,0,0,0,3.891-1.637,5.711,5.711,0,0,1-1.64,2.759Z" transform="translate(-11.774 -25.2)" fill="#525252"/>
    <path id="Trazado_7151" data-name="Trazado 7151" d="M21.665,45.405a6.376,6.376,0,0,0,4.252,1.548,8.644,8.644,0,0,0,3.171-.639c1.885-.745,3.4-1.427,4.738-2.028,2.958-1.331,4.588-2.063,6.074-1.6a3.243,3.243,0,0,0,4.206-1.628c.907-2.114-.658-4.183-2.5-5.217a22.22,22.22,0,0,0-16.381-2.508c-3.027.758-5.116,2.671-5.732,5.25A6.968,6.968,0,0,0,21.665,45.405Zm-1.217-6.593c.536-2.242,2.317-3.85,5.015-4.525a19.326,19.326,0,0,1,4.707-.575,22.091,22.091,0,0,1,10.914,2.963l.028.017c2.118,1.181,2.576,2.849,2.091,3.979a2.276,2.276,0,0,1-3.01,1.077c-1.842-.575-3.7.259-6.77,1.641-1.328.6-2.832,1.274-4.7,2.011-2.467.975-4.745.713-6.418-.737A6.056,6.056,0,0,1,20.448,38.812Z" transform="translate(-17.191 -30.605)" fill="#525252"/>
    <path id="Trazado_7152" data-name="Trazado 7152" d="M33.68,55.612a2.686,2.686,0,1,0-2.686-2.686A2.686,2.686,0,0,0,33.68,55.612Zm0-4.39a1.7,1.7,0,1,1-1.7,1.7A1.7,1.7,0,0,1,33.68,51.222Z" transform="translate(-25.598 -43.209)" fill="#525252"/>
  </g>
</svg>
