<svg id="electronica" xmlns="http://www.w3.org/2000/svg" width="32" height="32" viewBox="0 0 32 32">
  <rect id="Rectángulo_2296" data-name="Rectángulo 2296" width="32" height="32" fill="none"/>
  <g id="COMPUTER" transform="translate(2.667 5.333)">
    <path id="Trazado_7171" data-name="Trazado 7171" d="M25.469,11.81H1.2a1.2,1.2,0,0,0-1.2,1.2V28.633a1.2,1.2,0,0,0,1.2,1.2H9.941A3.8,3.8,0,0,1,8.694,32.3l-.7.621a.365.365,0,0,0,.243.636H18.426a.365.365,0,0,0,.243-.636l-.7-.621a3.8,3.8,0,0,1-1.248-2.467h8.744a1.2,1.2,0,0,0,1.2-1.2V13.008a1.2,1.2,0,0,0-1.2-1.2Zm-24.74,1.2a.469.469,0,0,1,.469-.469H25.469a.469.469,0,0,1,.469.469V25.143H.729ZM17.47,32.827H9.2a4.532,4.532,0,0,0,1.479-3h5.316a4.533,4.533,0,0,0,1.479,3Zm8.467-4.194a.469.469,0,0,1-.469.469H1.2a.469.469,0,0,1-.469-.469V25.872H25.938Z" transform="translate(0 -11.81)" fill="#525252" stroke="#525252" stroke-width="0.2"/>
    <circle id="Elipse_121" data-name="Elipse 121" cx="0.677" cy="0.677" r="0.677" transform="translate(12.656 15)" fill="#525252" stroke="#525252" stroke-width="0.2"/>
  </g>
</svg>
