<svg id="frutas_verdura" xmlns="http://www.w3.org/2000/svg" width="32" height="32" viewBox="0 0 32 32">
  <rect id="Rectángulo_2287" data-name="Rectángulo 2287" width="32" height="32" fill="none"/>
  <g id="FRUITSFRUITS" transform="translate(2.666 2.665)">
    <path id="Trazado_7148" data-name="Trazado 7148" d="M36.859,27.176a17.128,17.128,0,0,0,1.025-4.588.451.451,0,0,0-.531-.487c-.41.076-4.038.773-4.994,1.817a2.8,2.8,0,0,0-.418.6,7.9,7.9,0,0,0-.9-.062,4.663,4.663,0,0,0-.7-1.813c-2.145-3.129-6.134-2.143-8.433-.958,0-1.392.307-4.466,2.887-5.629a.451.451,0,1,0-.371-.822,5.173,5.173,0,0,0-2.088,1.713,2.559,2.559,0,0,0-.588-.92c-.908-.909-4.2-1.394-4.573-1.447a.446.446,0,0,0-.382.129.452.452,0,0,0-.129.382c.052.372.539,3.666,1.447,4.574a2.577,2.577,0,0,0,3.009.461A10.443,10.443,0,0,0,21,21.653c-2.308-1.17-6.242-2.11-8.369.99-1.517,2.212-.954,7.419,2.284,11.353,1.989,2.415,4.373,3.3,6.57,2.453a4.6,4.6,0,0,0,1.674.321,4.676,4.676,0,0,0,1.292-.189,7.8,7.8,0,1,0,12.405-9.406Zm.059-4.068a12.249,12.249,0,0,1-.971,3.862c-.006.009-.012.018-.017.027a1.011,1.011,0,0,1-.087.112,1.91,1.91,0,0,1-2.687.129,3.344,3.344,0,0,1,1.978-1.791.451.451,0,0,0-.273-.86A4.087,4.087,0,0,0,32.6,26.361a1.911,1.911,0,0,1,.421-1.836C33.518,23.987,35.473,23.422,36.917,23.108ZM18.748,19.026a9.23,9.23,0,0,1-1.1-3.457,9.194,9.194,0,0,1,3.457,1.1,1.669,1.669,0,0,1-2.361,2.361Zm2.918,16.522a.45.45,0,0,0-.357,0c-2.532,1.092-4.654-.863-5.693-2.126-2.6-3.162-3.69-8.153-2.237-10.27,1.024-1.492,2.633-2.015,4.783-1.552a11.083,11.083,0,0,1,3.088,1.222.453.453,0,0,0,.475,0A11.083,11.083,0,0,1,24.813,21.6c2.15-.464,3.76.059,4.783,1.552a3.669,3.669,0,0,1,.538,1.342A7.794,7.794,0,0,0,23.98,35.77a3.686,3.686,0,0,1-2.313-.222Zm9.272,3.6a6.9,6.9,0,1,1,0-13.8,6.987,6.987,0,0,1,.714.041,2.821,2.821,0,0,0,.446,1.988,7.618,7.618,0,0,0-.473,2.427.451.451,0,0,0,.449.453h0a.451.451,0,0,0,.451-.448,6.842,6.842,0,0,1,.284-1.7,2.787,2.787,0,0,0,1.619.518c.041,0,.084,0,.125,0a2.793,2.793,0,0,0,1.749-.709,6.9,6.9,0,0,1-5.365,11.23Z" transform="translate(-11.831 -14.575)" fill="#525252" stroke="#525252" stroke-width="0.2"/>
  </g>
</svg>
