<svg id="lacteos" xmlns="http://www.w3.org/2000/svg" width="32" height="32" viewBox="0 0 32 32">
  <rect id="Rectángulo_2286" data-name="Rectángulo 2286" width="32" height="32" fill="none"/>
  <g id="MILK" transform="translate(6.666 2.666)">
    <path id="Trazado_7153" data-name="Trazado 7153" d="M47.365,17.647a.029.029,0,0,0,0-.009l-1.281-2.305V12.244a.469.469,0,0,0-.777-.353l-.987.863-.987-.863a.469.469,0,0,0-.617,0l-.989.863-.987-.863a.469.469,0,0,0-.617,0l-.987.863-.987-.863a.469.469,0,0,0-.617,0l-.987.863-.987-.863a.469.469,0,0,0-.617,0l-.99.863-.987-.863a.469.469,0,0,0-.617,0l-.987.863-.987-.863a.469.469,0,0,0-.777.353v3.089l-1.281,2.305a.012.012,0,0,1,0,.008.464.464,0,0,0-.057.22v21.44a.469.469,0,0,0,.469.469H46.953a.469.469,0,0,0,.469-.469V17.867A.464.464,0,0,0,47.365,17.647Zm-3.563.688v5.579H29.193V18.335ZM29.193,24.852H43.8v7.573H29.193Zm16.419-8.432.543.977H45.069ZM30.534,13.277l.518.453a.469.469,0,0,0,.617,0l.987-.863.987.863a.469.469,0,0,0,.617,0l.987-.863.987.863a.469.469,0,0,0,.617,0l.99-.863.987.863a.469.469,0,0,0,.617,0l.987-.863.987.863a.469.469,0,0,0,.617,0l.987-.863.987.863a.469.469,0,0,0,.617,0l.518-.453v1.708H30.534Zm-.193,2.646H44.816L44,17.4H29.521ZM29.193,33.363H43.8v5.474H29.193Zm17.29,5.474H44.741v-20.5h1.742Z" transform="translate(-28.257 -11.775)" fill="#525252"/>
  </g>
</svg>
