<svg id="panaderia_tortilleria" xmlns="http://www.w3.org/2000/svg" width="32" height="32" viewBox="0 0 32 32">
  <rect id="Rectángulo_2282" data-name="Rectángulo 2282" width="32" height="32" fill="none"/>
  <g id="BREAD" transform="translate(2 4)">
    <path id="Trazado_7136" data-name="Trazado 7136" d="M35.485,59.634A.471.471,0,0,0,35.4,59.6a28.734,28.734,0,0,0-9.423-1.427A28.72,28.72,0,0,0,16.559,59.6a.473.473,0,0,0-.082.029c-2.9,1.055-4.7,2.6-4.7,4.344v4.147c0,.52.328.946,4.458,1.294,2.606.22,6.069.341,9.75.341s7.143-.121,9.75-.341c4.13-.349,4.458-.774,4.458-1.294V63.978C40.188,62.231,38.386,60.689,35.485,59.634Zm-2.547.234c.643.15,1.246.319,1.8.5-.435,2.1-1.141,3.058-1.356,3.083-.221-.089-.655-1.317-.446-3.587Zm-6.007-.724c0,.051,0,.1,0,.15,0,2.748-.695,4.135-.948,4.2-.264-.064-.958-1.453-.958-4.2,0-.051,0-.1,0-.15.313-.008.628-.014.95-.014S26.618,59.136,26.931,59.144Zm-8.343,4.309c-.224-.023-.93-.977-1.367-3.081.556-.185,1.159-.354,1.8-.5C19.234,62.138,18.8,63.365,18.588,63.453Zm20.648,4.479c-.9.385-5.745.878-13.255.878s-12.353-.493-13.256-.878V63.978c0-1.161,1.31-2.361,3.594-3.278.4,1.838,1.184,3.7,2.263,3.7a.959.959,0,0,0,.133-.01c1.183-.166,1.474-2.428,1.246-4.729a30.41,30.41,0,0,1,4.117-.486c0,.038,0,.075,0,.113,0,2.481.6,5.152,1.9,5.152s1.9-2.67,1.9-5.152c0-.038,0-.075,0-.113A30.414,30.414,0,0,1,32,59.667c-.228,2.3.063,4.563,1.246,4.729a.94.94,0,0,0,.133.01c1.078,0,1.86-1.866,2.263-3.7,2.285.916,3.594,2.117,3.594,3.278Z" transform="translate(-11.773 -49.761)" fill="#525252"/>
    <path id="Trazado_7137" data-name="Trazado 7137" d="M49.934,33.439a.476.476,0,1,0,.7.647c.68-.735,1.6-2.46.231-3.733a1.588,1.588,0,0,1,.038-2.328.476.476,0,1,0-.722-.62,2.574,2.574,0,0,0,.037,3.645C51.235,32,49.987,33.381,49.934,33.439Z" transform="translate(-39.184 -27.239)" fill="#525252"/>
    <path id="Trazado_7138" data-name="Trazado 7138" d="M60.559,33.439a.476.476,0,1,0,.7.647c.68-.735,1.6-2.46.231-3.733a1.588,1.588,0,0,1,.038-2.328.476.476,0,1,0-.722-.62,2.574,2.574,0,0,0,.037,3.645C61.86,32,60.612,33.381,60.559,33.439Z" transform="translate(-46.918 -27.239)" fill="#525252"/>
    <path id="Trazado_7139" data-name="Trazado 7139" d="M71.184,33.439a.476.476,0,0,0,.7.647c.68-.735,1.6-2.46.231-3.733a1.588,1.588,0,0,1,.038-2.328.476.476,0,1,0-.722-.62,2.574,2.574,0,0,0,.037,3.645C72.485,32,71.237,33.381,71.184,33.439Z" transform="translate(-54.653 -27.239)" fill="#525252"/>
  </g>
</svg>
